<svg version="1.1" xmlns="http://www.w3.org/2000/svg" viewBox="0 0 1016.5 453.8346124077216" width="2033" height="907.6692248154432">
  <!-- svg-source:excalidraw -->
  
  <defs>
    <style>
      @font-face {
        font-family: "Virgil";
        src: url("https://excalidraw.com/FG_Virgil.woff2");
      }
      @font-face {
        font-family: "Cascadia";
        src: url("https://excalidraw.com/Cascadia.woff2");
      }
    </style>
  </defs>
  <rect x="0" y="0" width="1016.5" height="453.8346124077216" fill="#ffffff"></rect><g transform="translate(184 165.52539809010923) rotate(0 409.5 45)"><path d="M0.35987624153494835 0.3860551334917546 C205.13484914293517 -1.2835515736304226, 410.8026832198725 -1.7748196600638333, 819.2658822678029 -0.7970508836209774 M-0.020499933883547785 0.04769150726497173 C322.8938126054593 -0.7112488902695475, 646.6990541761742 -0.4201816118843852, 819.0535182703286 0.1804270338267088 M818.9342049714178 0.008175307884812355 C817.6090558714234 20.929696916602552, 817.5909406489693 44.84016543999314, 817.0505746360868 89.28825854696333 M818.7985112043098 -0.06565676350146532 C819.4831393337809 25.51244357042015, 818.9566549337469 50.461411633528776, 819.7855558069423 89.56435691099614 M819.7397544287145 89.8860284782946 C648.5469638691284 89.2121281880699, 478.91104815695434 88.33142986482008, 0.789710345119238 90.10806925073265 M818.6579863417894 90.25870451442897 C510.69474935038016 89.82227632852272, 202.2080126794055 89.92052210422233, -0.3084152232855559 89.68875678293406 M0.12515333853662014 91.27680450119078 C0.7835165129043162 61.92585938144475, -1.2227540745399892 38.718280121684074, -0.9690368417650461 -0.37738884054124355 M-0.9447166947647929 89.580427008681 C1.0155089882202446 66.41405970603228, 0.06571335466578598 44.044280347414315, 0.9891910823062062 -0.7572659971192479" stroke="#000000" stroke-width="1" fill="none"></path></g><g><g transform="translate(600 166.52539809010923) rotate(0 -0.04682735030536378 47.06123134421183)"><path d="M-0.9087191965430974 0.015663668140768916 C-0.8146552827209234 15.44151444497208, 0.1247430656105279 78.20585341913005, 0.10092482306063166 93.74213395975531 M0.8150644959323108 -1.021716851424426 C0.8004906756989657 15.092073331444215, -0.873385693896562 79.28250325239574, -0.794135108459741 95.14417953984812" stroke="#000000" stroke-width="1" fill="none"></path></g></g><g><g transform="translate(385 166.52539809010923) rotate(0 0.1502624060958624 45.03373274933547)"><path d="M-0.8878666911274194 0.9869525883346795 C-0.8780615482479334 15.757671190674106, 0.8974046435207128 73.55288072166343, 1.1883915033191441 88.04625671841204 M0.8468645666912198 0.45949875187128786 C0.7037961207702755 15.489212368639805, 0.9149232124164702 74.81171988875916, 0.8642515789344909 89.60796674679965" stroke="#000000" stroke-width="1" fill="none"></path></g></g><g><g transform="translate(497 166.52539809010923) rotate(0 0.6011580759845856 44.40944701444357)"><path d="M1.166507002338767 -0.3404901053756475 C1.2478316154330966 14.513241904353103, -0.4623848710209132 73.98655761616925, -0.597876587882638 88.89922631718218 M0.31978444922715443 -1.5648513560369612 C0.895783195383847 13.503957707000275, 1.8912442027404905 75.03557715288052, 1.8001927398517727 90.38374538492411" stroke="#000000" stroke-width="1" fill="none"></path></g></g><g><g transform="translate(272 166.52539809010923) rotate(0 0.27485372789487883 45.252726300302896)"><path d="M0.9469208445399999 0.8160867903381586 C0.9116883999357621 15.944086632505059, 0.6784085081269343 75.42376246191562, 0.7254564132541418 90.3065241906792 M-0.015084441415965655 0.1989284099265931 C-0.31433520824958894 14.98849591743201, -0.4665458940590421 73.12981454264373, -0.366724433414638 88.34487464200706" stroke="#000000" stroke-width="1" fill="none"></path></g></g><g><g transform="translate(808 166.52539809010923) rotate(0 -0.32854180193680804 44.89236601632089)"><path d="M0.1939609374850988 0.28841334320604806 C0.17028740706543125 14.976759788766504, 0.6625495837380488 74.29762328602374, 0.6004898991435766 89.24792155958713 M-1.1633482996746898 -0.6057735969498754 C-1.4449717223768432 14.733322480730711, -1.1007307537520923 75.07245229940861, -0.5572983674332499 90.39050562959164" stroke="#000000" stroke-width="1" fill="none"></path></g></g><g><g transform="translate(704 166.52539809010923) rotate(0 0.21155208609991405 44.29280155461282)"><path d="M-1.157163444533944 0.16336890198290344 C-0.9255167438338199 14.7145917310069, 1.0364211327085893 73.15116364297766, 1.5802676167339087 87.8981273625046 M0.43618701774626967 -0.7964663698151708 C0.4564269475017984 13.89851619264732, 0.2519233584279814 74.80910134376337, 0.4118626518920063 89.38206947904081" stroke="#000000" stroke-width="1" fill="none"></path></g></g><g><g transform="translate(914 167.52539809010923) rotate(0 0.8312865521758113 44.25397977780551)"><path d="M-0.25951016284525397 1.1849292967468499 C-0.13678972659011684 15.556441101804378, 1.6090746687104305 72.30999998785556, 1.922083267197013 86.48139086700976 M1.8051082723215224 0.7614132321998479 C1.746735648798446 15.269836483113469, 1.5627200008307893 73.35382676970214, 1.4581315188482402 87.74654632341117" stroke="#000000" stroke-width="1" fill="none"></path></g></g><g transform="translate(946 198.02539809010923) rotate(0 12 13)"><text x="0" y="18" font-family="Virgil, Segoe UI Emoji" font-size="20px" fill="#000000" text-anchor="start" style="white-space: pre;" direction="ltr">Rs</text></g><g transform="translate(845 197.52539809010923) rotate(0 12.5 13)"><text x="0" y="18" font-family="Virgil, Segoe UI Emoji" font-size="20px" fill="#000000" text-anchor="start" style="white-space: pre;" direction="ltr">Rw</text></g><g transform="translate(742 196.52539809010923) rotate(0 11.5 13)"><text x="0" y="18" font-family="Virgil, Segoe UI Emoji" font-size="20px" fill="#000000" text-anchor="start" style="white-space: pre;" direction="ltr">En</text></g><g transform="translate(605 201.52539809010923) rotate(0 44.5 13)"><text x="44.5" y="18" font-family="Virgil, Segoe UI Emoji" font-size="20px" fill="#000000" text-anchor="middle" style="white-space: pre;" direction="ltr">Backlight</text></g><g transform="translate(202 200.52539809010923) rotate(0 23.5 13)"><text x="0" y="18" font-family="Virgil, Segoe UI Emoji" font-size="20px" fill="#000000" text-anchor="start" style="white-space: pre;" direction="ltr">Bit 7</text></g><g transform="translate(300.5 201.52539809010923) rotate(0 25 13)"><text x="0" y="18" font-family="Virgil, Segoe UI Emoji" font-size="20px" fill="#000000" text-anchor="start" style="white-space: pre;" direction="ltr">Bit 6</text></g><g transform="translate(410.5 200.52539809010923) rotate(0 27 13)"><text x="0" y="18" font-family="Virgil, Segoe UI Emoji" font-size="20px" fill="#000000" text-anchor="start" style="white-space: pre;" direction="ltr">Bit 5</text></g><g transform="translate(521.5 199.52539809010923) rotate(0 25.5 13)"><text x="0" y="18" font-family="Virgil, Segoe UI Emoji" font-size="20px" fill="#000000" text-anchor="start" style="white-space: pre;" direction="ltr">Bit 4</text></g><g transform="translate(187.5 348.0253980901092) rotate(0 409.5 45)"><path d="M0.4356252886354923 -0.7316922761499882 C292.3437158660032 1.6040154395662252, 583.3603246623651 1.3003132043443624, 819.4265724636614 0.6793934009969235 M0.1553422283381224 0.12470410950481892 C225.50031352220105 1.6436794704683124, 450.51645905617625 1.5772061175592242, 819.3647535514086 -0.1813199531286955 M818.0208011809736 1.093806779012084 C817.634506083373 32.122484163381166, 819.0457630523481 68.75984036549927, 817.5047551933676 89.03793904744089 M819.4739177701995 0.48468529898673296 C819.623690853361 27.977830054238442, 818.4179369607009 57.6325930422172, 818.3062715707347 89.03499093372375 M819.5229994513095 89.30651415809989 C569.3659959374927 88.14064294183628, 320.2199032207951 87.21477426374332, 0.5708024002611637 89.60266300663352 M818.8321885179728 90.37195106633007 C640.3038682882675 88.88508639619872, 461.4716978846118 88.78578757331893, 0.3103277157992125 89.82916934378446 M-0.9399435576051474 89.9845308419317 C1.8439097701571883 55.87253492604941, -0.8673346341587602 25.142533257603645, 0.11010008491575718 -1.3588010314852 M-0.5998757006600499 89.40005343873054 C-0.07285123290494089 57.50242548435926, -0.9479147416539491 24.392453360371277, -0.8359976233914495 -0.4412787286564708" stroke="#000000" stroke-width="1" fill="none"></path></g><g><g transform="translate(603.5 349.0253980901092) rotate(0 0.20476773848758967 46.8558379516937)"><path d="M0.6534379329532385 -1.0975384142249822 C0.944114276394248 14.606902493412298, 0.9228210534900427 77.82840635118386, 0.7232069458812476 93.52248463369907 M-0.4626458815857768 0.9406499729678037 C-0.1773857466503978 16.869290105315546, 0.343683237619698 79.31689647377779, 0.1548451288416981 94.80921431761234" stroke="#000000" stroke-width="1" fill="none"></path></g></g><g><g transform="translate(388.5 349.0253980901092) rotate(0 -0.574570604134351 44.38236783074214)"><path d="M-1.0975384142249822 0.7232069458812476 C-1.0597641732543706 15.19025950493912, -0.5049269821494817 72.80297799569865, -0.4775153663009405 87.45575328730047 M0.5271151889674366 0.057286647129803914 C0.4266996176354587 14.62390954789395, -1.8336325167305767 74.27811823166286, -1.6762563972361386 88.7074490143545" stroke="#000000" stroke-width="1" fill="none"></path></g></g><g><g transform="translate(500.5 349.0253980901092) rotate(0 -0.5274073773064174 43.67034028779716)"><path d="M0.7232069458812476 -0.4775153663009405 C0.5235928382724524 14.383229582880936, -0.5303553376346827 72.98416370290022, -0.5442467126995325 88.06693128086627 M-0.356248136870563 -1.773814878948033 C-0.8186809397861361 13.30568891675522, -1.8724107588455083 74.11692643514523, -1.7780217004939916 89.11449545454234" stroke="#000000" stroke-width="1" fill="none"></path></g></g><g><g transform="translate(275.5 349.0253980901092) rotate(0 0.9057546866964685 45.0478059913963)"><path d="M-0.4775153663009405 -0.5442467126995325 C-0.2834370837857325 14.441861912235618, -0.34916963043312227 75.59943602941931, 0.06693128086626532 90.63985869549215 M1.4726503370516002 1.7844198177941144 C2.133098429075132 16.35760321902111, 2.236397444636871 74.00771673308685, 2.28902473969385 88.85320976184681" stroke="#000000" stroke-width="1" fill="none"></path></g></g><g><g transform="translate(811.5 349.0253980901092) rotate(0 0.5478059913963307 45.043010691180825)"><path d="M-0.5442467126995325 -0.9330687191337347 C-0.3914714210977157 14.316365525498984, 1.4327693627526363 75.97657609917223, 1.6398586954921484 91.01909010149538 M1.3708850337937473 1.191466257981956 C1.3583460646743575 16.16622122924775, 1.2938544092451534 74.58285533946008, 1.027739046998322 89.43153765600175" stroke="#000000" stroke-width="1" fill="none"></path></g></g><g><g transform="translate(707.5 349.0253980901092) rotate(0 1.0430106911808252 44.503748487103735)"><path d="M-0.9330687191337347 0.6398586954921484 C-0.3503011411676804 15.34694802823166, 2.6432427658389006 73.23821647626659, 3.019090101495385 87.69828928373754 M0.7779314739815892 -0.06981943471357233 C1.3336307415676614 14.862859545915077, 2.7023263489517073 74.33185691452896, 2.606066941153258 89.07731640892104" stroke="#000000" stroke-width="1" fill="none"></path></g></g><g><g transform="translate(917.5 350.0253980901092) rotate(0 0.13917548393828838 44.006003517620286)"><path d="M0.6398586954921484 1.019090101495385 C0.8469480282316605 15.561604103818535, 0.7382164762665828 71.91419253088534, 0.6982892837375403 86.32201529480517 M-0.48335421871393924 0.508508459441364 C-0.41306427509834376 15.277710061185061, -0.3753387426460783 73.36022039782256, -0.4081543059274555 87.50349857579917" stroke="#000000" stroke-width="1" fill="none"></path></g></g><g transform="translate(949.5 380.5253980901092) rotate(0 12 13)"><text x="0" y="18" font-family="Virgil, Segoe UI Emoji" font-size="20px" fill="#000000" text-anchor="start" style="white-space: pre;" direction="ltr">Rs</text></g><g transform="translate(848.5 380.0253980901092) rotate(0 12.5 13)"><text x="0" y="18" font-family="Virgil, Segoe UI Emoji" font-size="20px" fill="#000000" text-anchor="start" style="white-space: pre;" direction="ltr">Rw</text></g><g transform="translate(745.5 379.0253980901092) rotate(0 11.5 13)"><text x="0" y="18" font-family="Virgil, Segoe UI Emoji" font-size="20px" fill="#000000" text-anchor="start" style="white-space: pre;" direction="ltr">En</text></g><g transform="translate(608.5 384.0253980901092) rotate(0 44.5 13)"><text x="44.5" y="18" font-family="Virgil, Segoe UI Emoji" font-size="20px" fill="#000000" text-anchor="middle" style="white-space: pre;" direction="ltr">Backlight</text></g><g transform="translate(205.5 383.0253980901092) rotate(0 27 13)"><text x="0" y="18" font-family="Virgil, Segoe UI Emoji" font-size="20px" fill="#000000" text-anchor="start" style="white-space: pre;" direction="ltr">Bit 3</text></g><g transform="translate(304 384.0253980901092) rotate(0 27.5 13)"><text x="0" y="18" font-family="Virgil, Segoe UI Emoji" font-size="20px" fill="#000000" text-anchor="start" style="white-space: pre;" direction="ltr">Bit 2</text></g><g transform="translate(414 384.0253980901092) rotate(0 21.5 13)"><text x="0" y="18" font-family="Virgil, Segoe UI Emoji" font-size="20px" fill="#000000" text-anchor="start" style="white-space: pre;" direction="ltr">Bit 1</text></g><g transform="translate(525 382.0253980901092) rotate(0 27.5 13)"><text x="0" y="18" font-family="Virgil, Segoe UI Emoji" font-size="20px" fill="#000000" text-anchor="start" style="white-space: pre;" direction="ltr">Bit 0</text></g><g transform="translate(14 191.52539809010923) rotate(0 65 18)"><text x="0" y="25" font-family="Virgil, Segoe UI Emoji" font-size="28px" fill="#000000" text-anchor="start" style="white-space: pre;" direction="ltr">Payload 1:</text></g><g transform="translate(10 376.5253980901092) rotate(0 73 18)"><text x="0" y="25" font-family="Virgil, Segoe UI Emoji" font-size="28px" fill="#000000" text-anchor="start" style="white-space: pre;" direction="ltr">Payload 2:</text></g><g transform="translate(48 34.52539809010923) rotate(0 43.5 18)"><text x="0" y="25" font-family="Virgil, Segoe UI Emoji" font-size="28px" fill="#000000" text-anchor="start" style="white-space: pre;" direction="ltr">Data:</text></g><g transform="translate(176 11.525398090109228) rotate(0 415 37)"><path d="M0.45923232808709147 -0.3962909080088139 C283.4485390307382 -0.9569982056692248, 566.1793473508209 -1.2517717604711656, 829.551164457947 -0.14045043960213663 M0.25177330486476424 -0.25080087296664716 C198.86216992307453 -3.003627591319383, 397.4844756446779 -2.581663673110307, 830.3625537227839 0.030752502754330637 M829.9696255270392 1.7938157077878714 C831.9295807034708 15.616578930057585, 831.0175821335055 32.33372653648257, 828.2826410476118 75.36600927077234 M829.9362450418994 0.4844175251200795 C828.6282068316079 17.461634511128068, 828.5708208207227 34.52548804040998, 829.2361634252593 74.8447006912902 M829.8572555996477 74.78505059704185 C536.370620460622 72.73523593205958, 240.8325670171528 73.15516116876155, -0.542833449691534 74.08654993996024 M830.3181314658374 73.72398743517697 C554.6367320185527 77.62242908511311, 279.552373510599 77.18415054116399, -0.2697186399251223 73.61153217442333 M0.7697564903646708 74.91554639302194 C-1.3928998076356947 45.93861684184522, -1.6308909618295728 18.68016835451126, -1.3366119917482138 0.4025463219732046 M0.16930009704083204 74.28498425800353 C1.0881524579040707 54.765272235870356, -0.061211626101285166 34.15159372966736, -0.6797626139596105 -0.8211384443566203" stroke="#000000" stroke-width="1" fill="none"></path></g><g><g transform="translate(594 11.525398090109228) rotate(0 0.03857307988511138 38.11327563608065)"><path d="M0.7668183770030736 -0.11012368462979794 C0.806459030136466 12.617177050684889, 0.5191581930965186 64.45180562871198, 0.21961923502385616 77.44009383656085 M-0.28974070440977817 -1.2135425643995403 C-0.3873099971935154 11.662458805156248, -0.8819026244804264 62.69508037200818, -0.6131261302158237 75.54856835197657" stroke="#000000" stroke-width="1" fill="none"></path></g></g><g><g transform="translate(809 12.525398090109228) rotate(0 -0.3151711801159536 36.86196461995132)"><path d="M0.1298249099403619 0.3782277312129736 C0.22549175955355155 12.879392076159519, 0.49338513351976865 62.22711346608897, 0.630813381448388 74.19273589514196 M-1.2611557416804136 -0.46880665523931375 C-1.2732850848324597 11.802336719005059, -0.3112065403349699 60.4424248240081, 0.013944943081587446 72.69634749131278" stroke="#000000" stroke-width="1" fill="none"></path></g></g><g><g transform="translate(698 12.525398090109228) rotate(0 0.3941705474161381 38.55365892370232)"><path d="M-0.566965713724494 -0.8019671950489282 C-0.27265053850909077 12.152522294347486, 1.14605180559059 63.80004099669555, 1.2415277931839228 76.58810478113591 M1.3362385572306814 1.391396082211286 C1.539547910622011 14.61386030174171, 0.2466101345730325 65.36113930818314, 0.4202844209782779 77.90928504245356" stroke="#000000" stroke-width="1" fill="none"></path></g></g><g><g transform="translate(906 13.525398090109228) rotate(0 -0.6646795417954081 37.27111505691894)"><path d="M-0.04172599576413627 -0.555541530624032 C0.13782312211891015 11.726594468578696, 0.33462439912060876 61.38770328424871, 0.0547752473503349 74.05596484802663 M-1.5227708728797733 1.7671952204592527 C-1.3194797569202878 14.139320367444306, -0.7258166602936884 63.1673242967017, -0.33951321141794333 75.0977716444619" stroke="#000000" stroke-width="1" fill="none"></path></g></g><g><g transform="translate(383 12.525398090109228) rotate(0 -0.7519330242790261 37.3508745106496)"><path d="M0.002498957142233804 0.6271602127701044 C-0.14994412995874884 13.180236094569166, 0.05807363651692876 62.53917497533064, 0.05063062570989141 74.79093364216388 M-1.455327819697559 -0.08918462086468937 C-1.845824816338718 12.173623847079773, -0.9750565732643008 60.48081862560163, -0.87083375941962 73.08359905552119" stroke="#000000" stroke-width="1" fill="none"></path></g></g><g><g transform="translate(493 11.525398090109228) rotate(0 0.7363329182969665 36.461416847156364)"><path d="M1.1899077627807857 -1.162382808700204 C1.2024728311846655 10.932700781648359, 1.2061181837071975 60.364179063464206, 1.219441232457757 73.04773196838796 M0.3554706089012325 0.8417622713930903 C0.12911104940498871 13.01613249487554, 0.3382113612008592 62.043949860005334, 0.3866024158708752 74.08521650301293" stroke="#000000" stroke-width="1" fill="none"></path></g></g><g><g transform="translate(275 10.525398090109228) rotate(0 -0.5166724058427121 39.63613913947716)"><path d="M0.06785595081746587 -0.5253980901092291 C-0.399969775850574 12.592283250267307, -1.353855645035704 65.3008251482, -1.6912076625972987 78.51491876579821 M-1.3556584043428304 1.8131639672443272 C-1.5296139263237518 15.109495759519437, 0.35925127236793436 66.7748351392274, 0.6578628509119153 79.79767636906355" stroke="#000000" stroke-width="1" fill="none"></path></g></g><g transform="translate(198.5 36.52539809010923) rotate(0 23.5 13)"><text x="0" y="18" font-family="Virgil, Segoe UI Emoji" font-size="20px" fill="#000000" text-anchor="start" style="white-space: pre;" direction="ltr">Bit 7</text></g><g transform="translate(307.5 38.52539809010923) rotate(0 25 13)"><text x="0" y="18" font-family="Virgil, Segoe UI Emoji" font-size="20px" fill="#000000" text-anchor="start" style="white-space: pre;" direction="ltr">Bit 6</text></g><g transform="translate(409.5 36.52539809010923) rotate(0 27 13)"><text x="0" y="18" font-family="Virgil, Segoe UI Emoji" font-size="20px" fill="#000000" text-anchor="start" style="white-space: pre;" direction="ltr">Bit 5</text></g><g transform="translate(520.5 38.52539809010923) rotate(0 25.5 13)"><text x="0" y="18" font-family="Virgil, Segoe UI Emoji" font-size="20px" fill="#000000" text-anchor="start" style="white-space: pre;" direction="ltr">Bit 4</text></g><g transform="translate(621.5 38.52539809010923) rotate(0 27 13)"><text x="0" y="18" font-family="Virgil, Segoe UI Emoji" font-size="20px" fill="#000000" text-anchor="start" style="white-space: pre;" direction="ltr">Bit 3</text></g><g transform="translate(722.5 40.52539809010923) rotate(0 27.5 13)"><text x="0" y="18" font-family="Virgil, Segoe UI Emoji" font-size="20px" fill="#000000" text-anchor="start" style="white-space: pre;" direction="ltr">Bit 2</text></g><g transform="translate(830.5 38.52539809010923) rotate(0 21.5 13)"><text x="0" y="18" font-family="Virgil, Segoe UI Emoji" font-size="20px" fill="#000000" text-anchor="start" style="white-space: pre;" direction="ltr">Bit 1</text></g><g transform="translate(923.5 37.52539809010923) rotate(0 27.5 13)"><text x="0" y="18" font-family="Virgil, Segoe UI Emoji" font-size="20px" fill="#000000" text-anchor="start" style="white-space: pre;" direction="ltr">Bit 0</text></g></svg>